Coordinates
version=1
nRows=12
nColumns=34
inDegrees=yes

Units are S.I. units (second, meters, Newtons, ...)
If the header above contains a line with 'inDegrees', this indicates whether rotational values are in degrees (yes) or radians (no).

endheader
time	pelvis_tilt	pelvis_list	pelvis_rotation	pelvis_tx	pelvis_ty	pelvis_tz	hip_flexion_r	hip_adduction_r	hip_rotation_r	knee_angle_r	ankle_angle_r	subtalar_angle_r	mtp_angle_r	hip_flexion_l	hip_adduction_l	hip_rotation_l	knee_angle_l	ankle_angle_l	subtalar_angle_l	mtp_angle_l	lumbar_extension	lumbar_bending	lumbar_rotation	arm_flex_r	arm_add_r	arm_rot_r	elbow_flex_r	pro_sup_r	arm_flex_l	arm_add_l	arm_rot_l	elbow_flex_l	pro_sup_l
      3.86666670	     -6.76185015	      2.94831671	      5.92381112	      1.89738368	      0.95326874	     -0.07420779	      5.99173802	     -7.34475369	    -15.35824522	     16.06528644	      2.60487250	     -0.34062122	      0.00000000	      6.92881606	     -5.49561996	     -6.87341387	     13.23721053	     -3.35060331	     10.84805581	      0.00000000	     -1.58749957	     -2.85597361	      6.27591367	     94.54134066	     -5.43085138	      2.92433605	     79.91740429	     91.24185106	    110.01504273	      5.30394128	     29.35645720	     79.78102092	     89.78468869
      3.88333330	     -7.04521027	      2.82940808	      6.49658915	      1.89950916	      0.95916286	     -0.07322446	      4.78278667	     -6.69500585	    -15.74956307	     12.87092001	     -1.08253710	     -0.28259075	      0.00000000	      6.40483573	     -5.28081748	     -6.48056137	     10.70420257	     -6.87051709	     10.79359018	      0.00000000	     -1.12570352	     -3.30996394	      6.75403219	    105.46259504	     -7.44907439	      5.33755257	     63.18988589	     90.66442727	    115.47084963	      7.61330717	     26.55418431	     73.69284265	     89.25387471
      3.90000000	     -7.36645577	      2.72948765	      6.89248769	      1.90268882	      0.95917815	     -0.07260870	      3.90328592	     -6.19535657	    -16.02658245	     10.32858482	     -4.38361598	     -0.40402022	      0.00000000	      6.10834651	     -5.05626848	     -6.13810782	      8.72063700	     -9.74275111	     10.43936558	      0.00000000	     -0.92759417	     -4.00410213	      7.60188015	    117.09143802	     -8.94412086	      9.72109453	     45.29167411	     90.24490612	    122.16967150	     10.31923100	     24.76229266	     67.54363934	     88.47303512
      3.91666670	     -7.83297926	      2.50817989	      7.15973774	      1.90646465	      0.95700442	     -0.07228948	      3.41940761	     -5.69133784	    -16.01081852	      8.37053381	     -6.85750641	     -0.64221815	      0.00000000	      6.14753987	     -4.97954843	     -5.79302261	      7.29069134	    -11.91252080	      9.69197026	      0.00000000	     -0.83058448	     -4.69862054	      8.99713537	    128.90722763	    -10.06702319	     17.18680216	     28.23839396	     89.09786300	    129.84185653	     12.59017930	     24.75151019	     62.35949479	     87.25623536
      3.93333330	     -8.48710671	      2.51647618	      7.25007753	      1.91002974	      0.95738561	     -0.07112024	      3.34708701	     -5.56271045	    -15.36220050	      6.89451052	     -9.23568624	     -1.30716316	      0.00000000	      6.28564587	     -4.63202199	     -5.58459229	      5.94444873	    -14.26760806	      8.41378326	      0.00000000	     -0.50811330	     -5.59888815	     11.63660666	    140.46367379	    -11.13298461	     41.17674310	     13.85878079	     66.73970479	    136.72989169	     15.22722282	     23.72580465	     57.07591241	     81.46390204
      3.95000000	     -9.61849311	      2.42796592	      7.58426260	      1.91356804	      0.95851388	     -0.06883633	      3.79157997	     -5.41868294	    -15.05508929	      5.52088851	    -11.68210947	     -1.63935216	      0.00000000	      7.07096339	     -4.34900049	     -5.05014364	      4.99805339	    -15.92549824	      6.69481014	      0.00000000	      0.62128521	     -6.42140116	     12.06140960	    146.48963052	     -9.02419654	     41.65045145	      6.53067136	     65.30653541	    142.66357099	     14.63249295	     26.89644414	     54.85056199	     81.91716944
      3.96666670	    -10.40374278	      2.33531036	      7.95592574	      1.91673298	      0.95927461	     -0.06635677	      4.05444210	     -5.23692736	    -14.60091199	      4.51684134	    -13.82728886	     -2.41458539	      0.00000000	      7.50206002	     -4.17177424	     -4.84605451	      4.16841752	    -17.40352243	      5.43796952	      0.00000000	      1.26057250	     -7.09899887	     12.58601235	    151.56143172	     -7.44023561	     43.96075554	      3.60082227	     64.01748791	    147.22978669	     14.10373162	     28.17228357	     53.75816656	     82.19119586
      3.98333330	    -11.33734049	      2.15509756	      8.43207643	      1.92010862	      0.95896385	     -0.06481093	      4.69910661	     -5.06459990	    -14.05996786	      4.01641428	    -15.47810281	     -3.22583664	      0.00000000	      8.29992196	     -4.07301785	     -4.64745701	      3.77155545	    -18.38218285	      4.64008899	      0.00000000	      2.16010823	     -7.76366001	     12.24295678	    155.17970094	     -6.07823137	     51.32426548	      3.31480725	     60.09607015	    150.99991596	     13.45370008	     29.91625173	     53.12401562	     83.20804453
      4.00000000	    -11.55805175	      1.91384844	      8.79073852	      1.92430927	      0.95744055	     -0.06443444	      4.65031624	     -4.78668961	    -13.41848849	      3.75478524	    -16.59584458	     -3.68185265	      0.00000000	      8.25042621	     -4.10032204	     -4.44206116	      3.35203314	    -19.21437117	      3.83385206	      0.00000000	      2.20785922	     -7.90692239	     11.97842592	    158.12157041	     -4.83604927	     51.84227311	      5.88154479	     59.54830075	    153.43984626	     12.86121827	     29.22244838	     54.02552654	     83.38922708
      4.01666670	    -11.79059170	      1.60141892	      9.08401922	      1.92951589	      0.95624256	     -0.06455786	      4.74132444	     -4.50311018	    -12.80213051	      3.89234784	    -17.31994351	     -4.35160990	      0.00000000	      8.21577703	     -4.17954432	     -4.51835430	      3.11943827	    -19.68461808	      2.95715156	      0.00000000	      2.34043004	     -7.93218478	     11.05098816	    160.33310679	     -3.65926742	     52.42144549	      8.61396120	     59.37087638	    155.64580268	     12.23744752	     29.56592462	     55.04083206	     83.80260826
      4.03333330	    -11.74469436	      1.26677988	      9.24760961	      1.93570019	      0.95510352	     -0.06487462	      4.46859684	     -4.16101395	    -11.92697871	      4.11755674	    -17.96781096	     -4.87331316	      0.00000000	      7.71613902	     -4.31336478	     -4.63627719	      2.86168330	    -19.91625598	      1.94078185	      0.00000000	      2.39384181	     -7.75319506	      9.75088796	    161.68618152	     -2.78944653	     53.30256786	     12.09503540	     59.39294276	    157.30847368	     11.05448437	     32.06250531	     56.39467957	     85.13611126
      4.05000000	    -11.74974238	      0.93317743	      9.34187040	      1.94168670	      0.95408938	     -0.06561454	      4.33459102	     -3.90417070	    -11.24492138	      4.72047434	    -17.74521267	     -4.87453806	      0.00000000	      7.26550959	     -4.46482795	     -5.00916391	      2.85659339	    -19.41618063	      1.18413738	      0.00000000	      2.42115689	     -7.51647874	      8.86831226	    163.39921476	     -1.70481309	     53.45645313	     13.93549138	     59.58076975	    158.11482261	     10.68780584	     32.58854142	     57.36056947	     85.55849958
